<mxfile host="drawio-plugin" modified="2024-01-04T10:51:59.711Z" agent="5.0 (Macintosh; Intel Mac OS X 10_15_7) AppleWebKit/537.36 (KHTML, like Gecko) Chrome/104.0.5112.102 Safari/537.36" etag="gRzMbVxQait-dtcYvR2O" version="20.5.3" type="embed"><diagram id="l2hICZZDM4IEkNlAZQyo" name="Page-1"><mxGraphModel dx="1330" dy="1834" grid="1" gridSize="10" guides="1" tooltips="1" connect="1" arrows="1" fold="1" page="1" pageScale="1" pageWidth="827" pageHeight="1169" math="0" shadow="0"><root><mxCell id="0"/><mxCell id="1" parent="0"/><mxCell id="25" style="edgeStyle=orthogonalEdgeStyle;curved=1;html=1;entryX=0;entryY=0.5;entryDx=0;entryDy=0;fontSize=18;fontColor=#FFFFFF;sketch=1;curveFitting=1;jiggle=2;exitX=0;exitY=0;exitDx=275;exitDy=30;exitPerimeter=0;" parent="1" source="3" target="52" edge="1"><mxGeometry relative="1" as="geometry"/></mxCell><mxCell id="3" value="&lt;div style=&quot;font-size: 20px;&quot;&gt;&lt;div style=&quot;font-size: 20px;&quot;&gt;&lt;span style=&quot;font-size: 20px;&quot;&gt;faktum_svar&lt;/span&gt;&lt;/div&gt;&lt;/div&gt;" style="shape=note;whiteSpace=wrap;html=1;backgroundOutline=1;darkOpacity=0.05;fontColor=default;labelBackgroundColor=none;sketch=1;curveFitting=1;jiggle=2;fontFamily=Architects Daughter;fontSource=https%3A%2F%2Ffonts.googleapis.com%2Fcss%3Ffamily%3DArchitects%2BDaughter;fontSize=20;" parent="1" vertex="1"><mxGeometry x="70" y="194.5" width="275" height="60" as="geometry"/></mxCell><mxCell id="26" style="edgeStyle=orthogonalEdgeStyle;curved=1;html=1;entryX=0;entryY=0.5;entryDx=0;entryDy=0;fontSize=18;fontColor=#FFFFFF;sketch=1;curveFitting=1;jiggle=2;" parent="1" source="10" target="62" edge="1"><mxGeometry relative="1" as="geometry"/></mxCell><mxCell id="10" value="&lt;div style=&quot;font-size: 20px;&quot;&gt;&lt;div style=&quot;font-size: 20px;&quot;&gt;&lt;div style=&quot;font-size: 20px;&quot;&gt;&lt;div style=&quot;font-size: 20px;&quot;&gt;&lt;span style=&quot;font-size: 20px;&quot;&gt;innsending_ferdigstilt&lt;/span&gt;&lt;/div&gt;&lt;/div&gt;&lt;/div&gt;&lt;/div&gt;" style="shape=note;whiteSpace=wrap;html=1;backgroundOutline=1;darkOpacity=0.05;fontColor=default;labelBackgroundColor=none;sketch=1;curveFitting=1;jiggle=2;fontFamily=Architects Daughter;fontSource=https%3A%2F%2Ffonts.googleapis.com%2Fcss%3Ffamily%3DArchitects%2BDaughter;fontSize=20;" parent="1" vertex="1"><mxGeometry x="70" y="535.5" width="275" height="60" as="geometry"/></mxCell><mxCell id="27" style="edgeStyle=orthogonalEdgeStyle;curved=1;html=1;entryX=0;entryY=0.5;entryDx=0;entryDy=0;fontSize=18;fontColor=#FFFFFF;sketch=1;curveFitting=1;jiggle=2;" parent="1" source="11" target="77" edge="1"><mxGeometry relative="1" as="geometry"><mxPoint x="510" y="690" as="targetPoint"/></mxGeometry></mxCell><mxCell id="11" value="&lt;div style=&quot;font-size: 20px;&quot;&gt;&lt;div style=&quot;font-size: 20px;&quot;&gt;&lt;div style=&quot;font-size: 20px;&quot;&gt;&lt;div style=&quot;font-size: 20px;&quot;&gt;&lt;div style=&quot;font-size: 20px;&quot;&gt;&lt;span style=&quot;font-size: 20px;&quot;&gt;søknad_slettet&lt;/span&gt;&lt;/div&gt;&lt;/div&gt;&lt;/div&gt;&lt;/div&gt;&lt;/div&gt;" style="shape=note;whiteSpace=wrap;html=1;backgroundOutline=1;darkOpacity=0.05;fontColor=default;labelBackgroundColor=none;sketch=1;curveFitting=1;jiggle=2;fontFamily=Architects Daughter;fontSource=https%3A%2F%2Ffonts.googleapis.com%2Fcss%3Ffamily%3DArchitects%2BDaughter;fontSize=20;" parent="1" vertex="1"><mxGeometry x="70" y="360" width="275" height="60" as="geometry"/></mxCell><mxCell id="12" value="&lt;div style=&quot;font-size: 20px;&quot;&gt;&lt;div style=&quot;font-size: 20px;&quot;&gt;&lt;div style=&quot;font-size: 20px;&quot;&gt;&lt;div style=&quot;font-size: 20px;&quot;&gt;&lt;div style=&quot;font-size: 20px;&quot;&gt;&lt;div style=&quot;font-size: 20px;&quot;&gt;&lt;span style=&quot;font-size: 20px;&quot;&gt;manuell_behandling&lt;/span&gt;&lt;/div&gt;&lt;/div&gt;&lt;/div&gt;&lt;/div&gt;&lt;/div&gt;&lt;/div&gt;" style="shape=note;whiteSpace=wrap;html=1;backgroundOutline=1;darkOpacity=0.05;fontColor=default;labelBackgroundColor=none;sketch=1;curveFitting=1;jiggle=2;fontFamily=Architects Daughter;fontSource=https%3A%2F%2Ffonts.googleapis.com%2Fcss%3Ffamily%3DArchitects%2BDaughter;fontSize=20;" parent="1" vertex="1"><mxGeometry x="70" y="710" width="275" height="60" as="geometry"/></mxCell><mxCell id="33" value="Hendelse" style="rounded=1;whiteSpace=wrap;html=1;fontStyle=1;strokeColor=none;fontSize=25;sketch=1;curveFitting=1;jiggle=2;fontFamily=Architects Daughter;fontSource=https%3A%2F%2Ffonts.googleapis.com%2Fcss%3Ffamily%3DArchitects%2BDaughter;shadow=0;glass=0;" parent="1" vertex="1"><mxGeometry x="126.25" width="162.5" height="30" as="geometry"/></mxCell><mxCell id="34" value="Resulterer i publisering av" style="rounded=1;whiteSpace=wrap;html=1;fontStyle=1;strokeColor=none;fontSize=25;sketch=1;curveFitting=1;jiggle=2;fontFamily=Architects Daughter;fontSource=https%3A%2F%2Ffonts.googleapis.com%2Fcss%3Ffamily%3DArchitects%2BDaughter;" parent="1" vertex="1"><mxGeometry x="902" width="160" height="30" as="geometry"/></mxCell><mxCell id="35" value="faktum_svar" style="shape=note;whiteSpace=wrap;html=1;backgroundOutline=1;darkOpacity=0.05;sketch=1;hachureGap=4;jiggle=2;curveFitting=1;fontFamily=Architects Daughter;fontSource=https%3A%2F%2Ffonts.googleapis.com%2Fcss%3Ffamily%3DArchitects%2BDaughter;fontSize=20;" parent="1" vertex="1"><mxGeometry x="837.5" y="460" width="310" height="60" as="geometry"/></mxCell><mxCell id="36" value="søker_oppgave" style="shape=note;whiteSpace=wrap;html=1;backgroundOutline=1;darkOpacity=0.05;sketch=1;hachureGap=4;jiggle=2;curveFitting=1;fontFamily=Architects Daughter;fontSource=https%3A%2F%2Ffonts.googleapis.com%2Fcss%3Ffamily%3DArchitects%2BDaughter;fontSize=20;" parent="1" vertex="1"><mxGeometry x="837.5" y="160" width="310" height="60" as="geometry"/></mxCell><mxCell id="37" value="manuell_behandling" style="shape=note;whiteSpace=wrap;html=1;backgroundOutline=1;darkOpacity=0.05;sketch=1;hachureGap=4;jiggle=2;curveFitting=1;fontFamily=Architects Daughter;fontSource=https%3A%2F%2Ffonts.googleapis.com%2Fcss%3Ffamily%3DArchitects%2BDaughter;fontSize=20;" parent="1" vertex="1"><mxGeometry x="837.5" y="360" width="310" height="60" as="geometry"/></mxCell><mxCell id="38" value="oppgave" style="shape=note;whiteSpace=wrap;html=1;backgroundOutline=1;darkOpacity=0.05;sketch=1;hachureGap=4;jiggle=2;curveFitting=1;fontFamily=Architects Daughter;fontSource=https%3A%2F%2Ffonts.googleapis.com%2Fcss%3Ffamily%3DArchitects%2BDaughter;fontSize=20;" parent="1" vertex="1"><mxGeometry x="837.5" y="260" width="310" height="60" as="geometry"/></mxCell><mxCell id="39" value="prosess_resultat" style="shape=note;whiteSpace=wrap;html=1;backgroundOutline=1;darkOpacity=0.05;sketch=1;hachureGap=4;jiggle=2;curveFitting=1;fontFamily=Architects Daughter;fontSource=https%3A%2F%2Ffonts.googleapis.com%2Fcss%3Ffamily%3DArchitects%2BDaughter;fontSize=20;" parent="1" vertex="1"><mxGeometry x="837.5" y="60" width="310" height="60" as="geometry"/></mxCell><mxCell id="40" value="Søknadsmal" style="shape=note;whiteSpace=wrap;html=1;backgroundOutline=1;darkOpacity=0.05;sketch=1;hachureGap=4;jiggle=2;curveFitting=1;fontFamily=Architects Daughter;fontSource=https%3A%2F%2Ffonts.googleapis.com%2Fcss%3Ffamily%3DArchitects%2BDaughter;fontSize=20;" parent="1" vertex="1"><mxGeometry x="827" y="830" width="310" height="60" as="geometry"/></mxCell><mxCell id="41" style="edgeStyle=orthogonalEdgeStyle;curved=1;html=1;fontSize=18;fontColor=#FFFFFF;sketch=1;curveFitting=1;jiggle=2;entryX=0;entryY=0.5;entryDx=0;entryDy=0;entryPerimeter=0;exitX=1;exitY=0.5;exitDx=0;exitDy=0;fillColor=#d80073;strokeColor=#A50040;" parent="1" source="52" target="35" edge="1"><mxGeometry relative="1" as="geometry"><mxPoint x="510" y="150" as="sourcePoint"/><mxPoint x="540" y="110" as="targetPoint"/></mxGeometry></mxCell><mxCell id="43" value="Når neste faktum har rolle &quot;nav&quot;" style="edgeLabel;html=1;align=center;verticalAlign=middle;resizable=0;points=[];fontFamily=Tahoma;fontSize=13;" parent="41" vertex="1" connectable="0"><mxGeometry x="0.1111" y="-2" relative="1" as="geometry"><mxPoint x="109" y="80" as="offset"/></mxGeometry></mxCell><mxCell id="42" style="edgeStyle=orthogonalEdgeStyle;curved=1;html=1;fontSize=18;fontColor=#FFFFFF;sketch=1;curveFitting=1;jiggle=2;entryX=0;entryY=0.5;entryDx=0;entryDy=0;entryPerimeter=0;exitX=1;exitY=0.5;exitDx=0;exitDy=0;fillColor=#d80073;strokeColor=#A50040;" parent="1" source="52" target="36" edge="1"><mxGeometry relative="1" as="geometry"><mxPoint x="560" y="250" as="sourcePoint"/><mxPoint x="670" y="90" as="targetPoint"/></mxGeometry></mxCell><mxCell id="45" value="Når neste faktum har rolle &quot;søker&quot;" style="edgeLabel;html=1;align=center;verticalAlign=middle;resizable=0;points=[];fontFamily=Tahoma;fontSize=13;" parent="42" vertex="1" connectable="0"><mxGeometry x="0.1242" y="-11" relative="1" as="geometry"><mxPoint x="75" y="21" as="offset"/></mxGeometry></mxCell><mxCell id="46" style="edgeStyle=orthogonalEdgeStyle;curved=1;html=1;fontSize=18;fontColor=#FFFFFF;sketch=1;curveFitting=1;jiggle=2;entryX=0;entryY=0.5;entryDx=0;entryDy=0;entryPerimeter=0;exitX=1;exitY=0.5;exitDx=0;exitDy=0;fillColor=#d80073;strokeColor=#A50040;" parent="1" source="52" target="38" edge="1"><mxGeometry relative="1" as="geometry"><mxPoint x="550" y="240" as="sourcePoint"/><mxPoint x="690" y="380" as="targetPoint"/></mxGeometry></mxCell><mxCell id="48" value="Når neste faktum har rolle &quot;saksbehandler&quot;" style="edgeLabel;html=1;align=center;verticalAlign=middle;resizable=0;points=[];fontFamily=Tahoma;fontSize=13;" parent="46" vertex="1" connectable="0"><mxGeometry x="0.0814" y="8" relative="1" as="geometry"><mxPoint x="108" y="-7" as="offset"/></mxGeometry></mxCell><mxCell id="49" style="edgeStyle=orthogonalEdgeStyle;curved=1;html=1;fontSize=18;fontColor=#FFFFFF;sketch=1;curveFitting=1;jiggle=2;entryX=0;entryY=0.5;entryDx=0;entryDy=0;entryPerimeter=0;exitX=1;exitY=0.5;exitDx=0;exitDy=0;fillColor=#d80073;strokeColor=#A50040;" parent="1" source="52" target="37" edge="1"><mxGeometry relative="1" as="geometry"><mxPoint x="560" y="250" as="sourcePoint"/><mxPoint x="755" y="384.5" as="targetPoint"/></mxGeometry></mxCell><mxCell id="51" value="Når neste faktum har rolle &quot;manuell&quot;" style="edgeLabel;html=1;align=center;verticalAlign=middle;resizable=0;points=[];fontFamily=Tahoma;fontSize=13;" parent="49" vertex="1" connectable="0"><mxGeometry x="0.0981" y="10" relative="1" as="geometry"><mxPoint x="106" y="40" as="offset"/></mxGeometry></mxCell><mxCell id="52" value="FaktumSvarService" style="rounded=1;whiteSpace=wrap;html=1;labelBorderColor=none;fontColor=default;labelBackgroundColor=none;fontSize=20;fontStyle=1;sketch=1;curveFitting=1;jiggle=2;fontFamily=Architects Daughter;fontSource=https%3A%2F%2Ffonts.googleapis.com%2Fcss%3Ffamily%3DArchitects%2BDaughter;" parent="1" vertex="1"><mxGeometry x="450" y="194.5" width="220" height="60" as="geometry"/></mxCell><mxCell id="60" style="edgeStyle=orthogonalEdgeStyle;curved=1;html=1;fontSize=18;fontColor=#FFFFFF;sketch=1;curveFitting=1;jiggle=2;entryX=0;entryY=0.5;entryDx=0;entryDy=0;entryPerimeter=0;exitX=1;exitY=0.5;exitDx=0;exitDy=0;fillColor=#d80073;strokeColor=#A50040;" parent="1" source="52" target="39" edge="1"><mxGeometry relative="1" as="geometry"><mxPoint x="680" y="240" as="sourcePoint"/><mxPoint x="847.5" y="384.5" as="targetPoint"/></mxGeometry></mxCell><mxCell id="71" value="&lt;span style=&quot;font-size: 13px;&quot;&gt;Når prosess er ferdig og ikke er &quot;Dagpenger&quot; eller &quot;Innsending&quot;&lt;/span&gt;" style="edgeLabel;html=1;align=center;verticalAlign=middle;resizable=0;points=[];fontSize=13;fontFamily=Tahoma;" parent="60" vertex="1" connectable="0"><mxGeometry x="0.8057" y="29" relative="1" as="geometry"><mxPoint x="117" y="59" as="offset"/></mxGeometry></mxCell><mxCell id="62" value="AvslagPåMinsteinntektService" style="rounded=1;whiteSpace=wrap;html=1;labelBorderColor=none;fontColor=default;labelBackgroundColor=none;fontSize=20;fontStyle=1;sketch=1;curveFitting=1;jiggle=2;fontFamily=Architects Daughter;fontSource=https%3A%2F%2Ffonts.googleapis.com%2Fcss%3Ffamily%3DArchitects%2BDaughter;" parent="1" vertex="1"><mxGeometry x="410" y="535.5" width="300" height="60" as="geometry"/></mxCell><mxCell id="74" style="edgeStyle=orthogonalEdgeStyle;curved=1;html=1;fontSize=18;fontColor=#FFFFFF;sketch=1;curveFitting=1;jiggle=2;exitX=1;exitY=0.5;exitDx=0;exitDy=0;entryX=0;entryY=0.5;entryDx=0;entryDy=0;entryPerimeter=0;fillColor=#0050ef;strokeColor=#001DBC;" parent="1" source="62" target="37" edge="1"><mxGeometry relative="1" as="geometry"><mxPoint x="740" y="620" as="sourcePoint"/><mxPoint x="730" y="420" as="targetPoint"/><Array as="points"><mxPoint x="720" y="566"/><mxPoint x="720" y="390"/></Array></mxGeometry></mxCell><mxCell id="76" style="edgeStyle=orthogonalEdgeStyle;curved=1;html=1;entryX=0;entryY=0.5;entryDx=0;entryDy=0;fontSize=18;fontColor=#FFFFFF;sketch=1;curveFitting=1;jiggle=2;exitX=1;exitY=0.5;exitDx=0;exitDy=0;entryPerimeter=0;fillColor=#0050ef;strokeColor=#001DBC;shadow=0;" parent="1" source="62" target="35" edge="1"><mxGeometry relative="1" as="geometry"><mxPoint x="730" y="630" as="sourcePoint"/><mxPoint x="885" y="510" as="targetPoint"/></mxGeometry></mxCell><mxCell id="77" value="FaktaSlettetService" style="rounded=1;whiteSpace=wrap;html=1;labelBorderColor=none;fontColor=default;labelBackgroundColor=none;fontSize=20;fontStyle=1;sketch=1;curveFitting=1;jiggle=2;fontFamily=Architects Daughter;fontSource=https%3A%2F%2Ffonts.googleapis.com%2Fcss%3Ffamily%3DArchitects%2BDaughter;" parent="1" vertex="1"><mxGeometry x="410" y="360" width="300" height="60" as="geometry"/></mxCell><mxCell id="78" value="ManuellBehandlingSink" style="rounded=1;whiteSpace=wrap;html=1;labelBorderColor=none;fontColor=default;labelBackgroundColor=none;fontSize=20;fontStyle=1;sketch=1;curveFitting=1;jiggle=2;fontFamily=Architects Daughter;fontSource=https%3A%2F%2Ffonts.googleapis.com%2Fcss%3Ffamily%3DArchitects%2BDaughter;" parent="1" vertex="1"><mxGeometry x="410" y="710" width="300" height="60" as="geometry"/></mxCell><mxCell id="81" style="edgeStyle=orthogonalEdgeStyle;curved=1;html=1;entryX=0;entryY=0.5;entryDx=0;entryDy=0;fontSize=18;fontColor=#FFFFFF;sketch=1;curveFitting=1;jiggle=2;exitX=0;exitY=0;exitDx=275;exitDy=30;exitPerimeter=0;" parent="1" source="12" target="78" edge="1"><mxGeometry relative="1" as="geometry"><mxPoint x="350" y="740" as="sourcePoint"/><mxPoint x="424" y="620" as="targetPoint"/></mxGeometry></mxCell><mxCell id="82" value="ApplicationBuilder" style="rounded=1;whiteSpace=wrap;html=1;labelBorderColor=none;fontColor=default;labelBackgroundColor=none;fontSize=20;fontStyle=1;sketch=1;curveFitting=1;jiggle=2;fontFamily=Architects Daughter;fontSource=https%3A%2F%2Ffonts.googleapis.com%2Fcss%3Ffamily%3DArchitects%2BDaughter;" parent="1" vertex="1"><mxGeometry x="414" y="830" width="300" height="60" as="geometry"/></mxCell><mxCell id="83" value="" style="edgeStyle=orthogonalEdgeStyle;curved=1;html=1;entryX=0;entryY=0.5;entryDx=0;entryDy=0;fontSize=18;fontColor=#FFFFFF;sketch=1;curveFitting=1;jiggle=2;exitX=1;exitY=0.5;exitDx=0;exitDy=0;entryPerimeter=0;" parent="1" source="82" target="40" edge="1"><mxGeometry relative="1" as="geometry"><mxPoint x="355" y="750" as="sourcePoint"/><mxPoint x="420" y="750" as="targetPoint"/></mxGeometry></mxCell><mxCell id="84" value="OnStartup" style="edgeLabel;html=1;align=center;verticalAlign=middle;resizable=0;points=[];fontSize=15;fontFamily=Architects Daughter;" parent="83" vertex="1" connectable="0"><mxGeometry x="0.0088" y="4" relative="1" as="geometry"><mxPoint y="3" as="offset"/></mxGeometry></mxCell><mxCell id="85" value="Behandles av" style="rounded=1;whiteSpace=wrap;html=1;fontStyle=1;strokeColor=none;fontSize=25;sketch=1;curveFitting=1;jiggle=2;fontFamily=Architects Daughter;fontSource=https%3A%2F%2Ffonts.googleapis.com%2Fcss%3Ffamily%3DArchitects%2BDaughter;shadow=0;glass=0;" parent="1" vertex="1"><mxGeometry x="478.75" width="162.5" height="30" as="geometry"/></mxCell><mxCell id="89" value="Avsender" style="rounded=1;whiteSpace=wrap;html=1;fontStyle=1;strokeColor=none;fontSize=25;sketch=1;curveFitting=1;jiggle=2;fontFamily=Architects Daughter;fontSource=https%3A%2F%2Ffonts.googleapis.com%2Fcss%3Ffamily%3DArchitects%2BDaughter;shadow=0;glass=0;" parent="1" vertex="1"><mxGeometry x="-216.25" width="162.5" height="30" as="geometry"/></mxCell><mxCell id="90" value="dp-soknad" style="rounded=1;whiteSpace=wrap;html=1;labelBorderColor=none;fontColor=default;labelBackgroundColor=none;fontSize=20;fontStyle=1;sketch=1;curveFitting=1;jiggle=2;fontFamily=Architects Daughter;fontSource=https%3A%2F%2Ffonts.googleapis.com%2Fcss%3Ffamily%3DArchitects%2BDaughter;" parent="1" vertex="1"><mxGeometry x="-220" y="204.5" width="150" height="40" as="geometry"/></mxCell><mxCell id="91" style="edgeStyle=orthogonalEdgeStyle;curved=1;html=1;fontSize=18;fontColor=#FFFFFF;sketch=1;curveFitting=1;jiggle=2;" parent="1" source="90" target="3" edge="1"><mxGeometry relative="1" as="geometry"><mxPoint x="424" y="730" as="targetPoint"/><mxPoint x="355" y="730" as="sourcePoint"/></mxGeometry></mxCell><mxCell id="94" value="dp-mottak" style="rounded=1;whiteSpace=wrap;html=1;labelBorderColor=none;fontColor=default;labelBackgroundColor=none;fontSize=20;fontStyle=1;sketch=1;curveFitting=1;jiggle=2;fontFamily=Architects Daughter;fontSource=https%3A%2F%2Ffonts.googleapis.com%2Fcss%3Ffamily%3DArchitects%2BDaughter;" parent="1" vertex="1"><mxGeometry x="-210" y="545" width="150" height="40" as="geometry"/></mxCell><mxCell id="95" style="edgeStyle=orthogonalEdgeStyle;curved=1;html=1;fontSize=18;fontColor=#FFFFFF;sketch=1;curveFitting=1;jiggle=2;exitX=1;exitY=0.5;exitDx=0;exitDy=0;" parent="1" source="94" target="10" edge="1"><mxGeometry relative="1" as="geometry"><mxPoint x="80" y="234.5" as="targetPoint"/><mxPoint x="-60" y="234.5" as="sourcePoint"/></mxGeometry></mxCell><mxCell id="96" style="edgeStyle=orthogonalEdgeStyle;curved=1;html=1;fontSize=18;fontColor=#FFFFFF;sketch=1;curveFitting=1;jiggle=2;exitX=1;exitY=0.5;exitDx=0;exitDy=0;entryX=0;entryY=0.5;entryDx=0;entryDy=0;entryPerimeter=0;" parent="1" source="90" target="11" edge="1"><mxGeometry relative="1" as="geometry"><mxPoint x="80" y="234.5" as="targetPoint"/><mxPoint x="-60" y="234.5" as="sourcePoint"/></mxGeometry></mxCell><mxCell id="97" value="dp-quiz" style="rounded=1;whiteSpace=wrap;html=1;labelBorderColor=none;fontColor=default;labelBackgroundColor=none;fontSize=20;fontStyle=1;sketch=1;curveFitting=1;jiggle=2;fontFamily=Architects Daughter;fontSource=https%3A%2F%2Ffonts.googleapis.com%2Fcss%3Ffamily%3DArchitects%2BDaughter;" parent="1" vertex="1"><mxGeometry x="-210" y="720" width="150" height="40" as="geometry"/></mxCell><mxCell id="98" style="edgeStyle=orthogonalEdgeStyle;curved=1;html=1;fontSize=18;fontColor=#FFFFFF;sketch=1;curveFitting=1;jiggle=2;exitX=1;exitY=0.5;exitDx=0;exitDy=0;entryX=0;entryY=0.5;entryDx=0;entryDy=0;entryPerimeter=0;" parent="1" source="97" target="12" edge="1"><mxGeometry relative="1" as="geometry"><mxPoint x="80" y="465.5" as="targetPoint"/><mxPoint x="-50" y="465" as="sourcePoint"/></mxGeometry></mxCell><mxCell id="99" value="Hvem andre enn Quiz håndterer dette?" style="rounded=1;whiteSpace=wrap;html=1;dashed=1;" parent="1" vertex="1"><mxGeometry x="20" y="670" width="120" height="60" as="geometry"/></mxCell></root></mxGraphModel></diagram></mxfile>